<?xml version="1.0" standalone="no"?>
<!DOCTYPE svg PUBLIC "-//W3C//DTD SVG 1.1//EN"
  "http://www.w3.org/Graphics/SVG/1.1/DTD/svg11.dtd">
<svg width="14.200100cm" height="7.200000cm" viewBox="-51.000999 8.000000 142.000999 72.000000"
     xmlns="http://www.w3.org/2000/svg" version="1.1">
  <title>Turret Sliced</title>
  <desc> made with tinkercad </desc>
<path d=" M 64.500000 68.867996 L 64.133003 68.501999 L 63.999001 68.001999 L 64.133003 67.501999 L 64.500000 67.135002 L 65.000000 67.000999 L 65.500000 67.135002 L 65.866997 67.501999 L 66.000999 68.001999 L 65.866997 68.501999 L 65.500000 68.867996 L 65.003731 69.000999 L 65.000000 69.001999 L 64.996269 69.000999 z M 63.999001 75.001999 L 64.133003 74.501999 L 64.500000 74.136002 L 65.000000 74.001999 L 65.500000 74.136002 L 65.866997 74.501999 L 66.000999 75.001999 L 65.866997 75.502998 L 65.500000 75.869003 L 65.000000 76.002998 L 64.500000 75.869003 L 64.133003 75.502998 z M -10.001000 40.001999 L -10.001000 62.001999 L -10.001000 62.561001 L -7.001000 62.561001 L 0.997000 62.561001 L 8.999000 62.561001 L 20.000000 62.561001 L 20.000999 62.561001 L 20.000999 62.001999 L 20.000999 40.563999 L 20.000999 40.001999 L 20.000999 39.563000 L 20.000000 39.563000 L 20.000000 26.563000 L 18.000999 26.563000 L 8.999000 26.563000 L 2.001000 26.563000 L -7.001000 26.563000 L -10.001000 26.563000 z M 10.003000 53.567001 L 10.003000 44.497002 L 9.003000 44.497002 L 8.999000 44.497002 L 0.997000 44.497002 L -0.003000 44.497002 L -0.003000 54.502998 L 0.997000 54.502998 L 8.999000 54.502998 L 10.003000 54.502998 z M 40.000000 40.563999 L 40.000000 62.001999 L 40.000000 62.563999 L 40.000000 69.000999 L 40.000000 79.000000 L 52.999001 79.000000 L 63.999001 79.000000 L 68.999001 79.000000 L 90.000000 79.000000 L 90.000000 69.000999 L 90.000000 62.563999 L 90.000000 62.001999 L 90.000000 40.563999 L 90.000000 40.001999 L 90.000000 39.000999 L 90.000000 14.998000 L 90.000000 9.000000 L 77.002998 9.000000 L 75.001999 9.000000 L 68.999001 9.000000 L 54.998001 9.000000 L 52.999001 9.000000 L 52.997002 9.000000 L 40.000000 9.000000 L 40.000000 39.000999 L 40.000000 40.001999 z M 75.136002 13.497000 L 75.501999 13.131000 L 76.001999 12.997000 L 76.502998 13.131000 L 76.869003 13.497000 L 77.002998 13.998000 L 76.869003 14.498000 L 76.502998 14.864000 L 76.001999 14.998000 L 75.501999 14.864000 L 75.136002 14.498000 L 75.001999 13.998000 z M 13.500000 39.567001 L 14.841000 39.299999 L 15.977000 38.541000 L 16.736000 37.404999 L 17.003000 36.063999 L 16.736000 34.723000 L 15.977000 33.587002 L 14.841000 32.827999 L 13.500000 32.561001 L 12.159000 32.827999 L 11.023000 33.587002 L 10.264000 34.723000 L 9.997000 36.063999 L 10.264000 37.404999 L 11.023000 38.541000 L 12.159000 39.299999 z M -2.500000 39.567001 L -1.159000 39.299999 L -0.023000 38.541000 L 0.736000 37.404999 L 1.003000 36.063999 L 0.736000 34.723000 L -0.023000 33.587002 L -1.159000 32.827999 L -2.500000 32.561001 L -3.841000 32.827999 L -4.977000 33.587002 L -5.736000 34.723000 L -6.003000 36.063999 L -5.736000 37.404999 L -4.977000 38.541000 L -3.841000 39.299999 z M 52.997002 13.998000 L 52.999001 13.990522 L 53.131001 13.497000 L 53.497002 13.131000 L 53.998001 12.997000 L 54.498001 13.131000 L 54.863998 13.497000 L 54.998001 13.998000 L 54.863998 14.498000 L 54.498001 14.864000 L 53.998001 14.998000 L 53.497002 14.864000 L 53.131001 14.498000 L 52.999001 14.005463 z M -19.999001 26.563000 L -19.999001 40.001999 L -19.999001 61.999001 L -31.000999 61.999001 L -47.000999 61.999001 L -50.000999 61.999001 L -50.000999 26.000999 L -47.000999 26.000999 L -31.000999 26.000999 L -19.999001 26.000999 z" fill="none" stroke="rgb(0,0,255)" stroke-width="0.01mm" />
</svg>
